<svg width="197" height="32" viewBox="0 0 197 32" fill="none" xmlns="http://www.w3.org/2000/svg">
<rect x="2.17943" width="29" height="29" rx="5" transform="rotate(4.31 2.17943 0)" fill="#98BEC9"/>
<rect x="2.87094" y="0.804244" width="27.5" height="27.5" rx="4.25" transform="rotate(4.31 2.87094 0.804244)" stroke="black" stroke-opacity="0.8" stroke-width="1.5"/>
<rect x="166.168" y="2.88293" width="29" height="29" rx="5" transform="rotate(-3.39056 166.168 2.88293)" fill="#C4E8B7"/>
<rect x="166.961" y="3.58727" width="27.5" height="27.5" rx="4.25" transform="rotate(-3.39056 166.961 3.58727)" stroke="black" stroke-opacity="0.8" stroke-width="1.5"/>
<path d="M46.793 17.8418C46.793 18.9421 46.6562 19.9447 46.3828 20.8496C46.1094 21.748 45.6927 22.5228 45.1328 23.1738C44.5794 23.8249 43.8763 24.3262 43.0234 24.6777C42.1706 25.0228 41.1615 25.1953 39.9961 25.1953C38.8307 25.1953 37.8216 25.0228 36.9688 24.6777C36.1159 24.3262 35.4095 23.8249 34.8496 23.1738C34.2962 22.5228 33.8828 21.7448 33.6094 20.8398C33.3359 19.9349 33.1992 18.929 33.1992 17.8223C33.1992 16.3444 33.4401 15.0586 33.9219 13.9648C34.4102 12.8646 35.1589 12.0117 36.168 11.4062C37.1771 10.8008 38.4596 10.498 40.0156 10.498C41.5651 10.498 42.8379 10.8008 43.834 11.4062C44.8366 12.0117 45.5788 12.8646 46.0605 13.9648C46.5488 15.0651 46.793 16.3574 46.793 17.8418ZM36.373 17.8418C36.373 18.8379 36.4967 19.6973 36.7441 20.4199C36.998 21.1361 37.3919 21.6895 37.9258 22.0801C38.4596 22.4642 39.1497 22.6562 39.9961 22.6562C40.8555 22.6562 41.5521 22.4642 42.0859 22.0801C42.6198 21.6895 43.0072 21.1361 43.248 20.4199C43.4954 19.6973 43.6191 18.8379 43.6191 17.8418C43.6191 16.3444 43.3392 15.166 42.7793 14.3066C42.2194 13.4473 41.2982 13.0176 40.0156 13.0176C39.1628 13.0176 38.4661 13.2129 37.9258 13.6035C37.3919 13.9876 36.998 14.541 36.7441 15.2637C36.4967 15.9798 36.373 16.8392 36.373 17.8418ZM57.9121 10.7227C59.2077 10.7227 60.2754 10.8789 61.1152 11.1914C61.9616 11.5039 62.5898 11.9759 63 12.6074C63.4102 13.2389 63.6152 14.0365 63.6152 15C63.6152 15.651 63.4915 16.2207 63.2441 16.709C62.9967 17.1973 62.6712 17.6107 62.2676 17.9492C61.8639 18.2878 61.4277 18.5645 60.959 18.7793L65.1582 25H61.7988L58.3906 19.5215H56.7793V25H53.752V10.7227H57.9121ZM57.6973 13.2031H56.7793V17.0605H57.7559C58.7585 17.0605 59.4746 16.8945 59.9043 16.5625C60.3405 16.224 60.5586 15.7292 60.5586 15.0781C60.5586 14.401 60.3242 13.9193 59.8555 13.6328C59.3932 13.3464 58.6738 13.2031 57.6973 13.2031ZM82.8008 17.7246C82.8008 19.3327 82.4915 20.6771 81.873 21.7578C81.2611 22.832 80.3724 23.6426 79.207 24.1895C78.0417 24.7298 76.6387 25 74.998 25H70.9551V10.7227H75.4375C76.9349 10.7227 78.2337 10.9896 79.334 11.5234C80.4342 12.0508 81.2871 12.8353 81.8926 13.877C82.498 14.9121 82.8008 16.1947 82.8008 17.7246ZM79.6562 17.8027C79.6562 16.748 79.5 15.8822 79.1875 15.2051C78.8815 14.5215 78.4258 14.0169 77.8203 13.6914C77.2214 13.3659 76.4792 13.2031 75.5938 13.2031H73.9824V22.5H75.2812C76.7591 22.5 77.8561 22.1061 78.5723 21.3184C79.2949 20.5306 79.6562 19.3587 79.6562 17.8027Z" fill="black" fill-opacity="0.8"/>
<path d="M107.969 10.7227C109.264 10.7227 110.332 10.8789 111.172 11.1914C112.018 11.5039 112.646 11.9759 113.057 12.6074C113.467 13.2389 113.672 14.0365 113.672 15C113.672 15.651 113.548 16.2207 113.301 16.709C113.053 17.1973 112.728 17.6107 112.324 17.9492C111.921 18.2878 111.484 18.5645 111.016 18.7793L115.215 25H111.855L108.447 19.5215H106.836V25H103.809V10.7227H107.969ZM107.754 13.2031H106.836V17.0605H107.812C108.815 17.0605 109.531 16.8945 109.961 16.5625C110.397 16.224 110.615 15.7292 110.615 15.0781C110.615 14.401 110.381 13.9193 109.912 13.6328C109.45 13.3464 108.73 13.2031 107.754 13.2031ZM129.234 25H121.012V10.7227H129.234V13.2031H124.039V16.3379H128.873V18.8184H124.039V22.5H129.234V25ZM144.963 25L143.928 21.6016H138.723L137.688 25H134.426L139.465 10.6641H143.166L148.225 25H144.963ZM143.205 19.0625L142.17 15.7422C142.105 15.5208 142.017 15.2376 141.906 14.8926C141.802 14.541 141.695 14.1862 141.584 13.8281C141.48 13.4635 141.395 13.1478 141.33 12.8809C141.265 13.1478 141.174 13.4798 141.057 13.877C140.946 14.2676 140.839 14.6387 140.734 14.9902C140.63 15.3418 140.555 15.5924 140.51 15.7422L139.484 19.0625H143.205ZM160.096 13.0371C159.516 13.0371 159.002 13.151 158.553 13.3789C158.11 13.6003 157.736 13.9225 157.43 14.3457C157.13 14.7689 156.902 15.2799 156.746 15.8789C156.59 16.4779 156.512 17.1517 156.512 17.9004C156.512 18.9095 156.635 19.7721 156.883 20.4883C157.137 21.1979 157.527 21.7415 158.055 22.1191C158.582 22.4902 159.262 22.6758 160.096 22.6758C160.675 22.6758 161.255 22.6107 161.834 22.4805C162.42 22.3503 163.055 22.1647 163.738 21.9238V24.4629C163.107 24.7233 162.485 24.9089 161.873 25.0195C161.261 25.1367 160.574 25.1953 159.812 25.1953C158.341 25.1953 157.13 24.8926 156.18 24.2871C155.236 23.6751 154.536 22.8223 154.08 21.7285C153.624 20.6283 153.396 19.3457 153.396 17.8809C153.396 16.8001 153.543 15.8105 153.836 14.9121C154.129 14.0137 154.559 13.2357 155.125 12.5781C155.691 11.9206 156.391 11.4128 157.225 11.0547C158.058 10.6966 159.015 10.5176 160.096 10.5176C160.805 10.5176 161.515 10.6087 162.225 10.791C162.941 10.9668 163.624 11.2109 164.275 11.5234L163.299 13.9844C162.765 13.7305 162.228 13.5091 161.688 13.3203C161.147 13.1315 160.617 13.0371 160.096 13.0371Z" fill="black" fill-opacity="0.8"/>
<path d="M26.1071 9.18175L21.4116 23.1457L17.9741 22.8866L16.6096 15.2625C16.5814 15.1168 16.5459 14.8954 16.503 14.5983C16.4601 14.3013 16.4159 13.9781 16.3704 13.6286C16.3254 13.2726 16.2852 12.9399 16.2498 12.6304C16.2213 12.3148 16.2042 12.0655 16.1984 11.8822C16.1652 12.0625 16.1079 12.303 16.0265 12.6038C15.9516 12.905 15.8654 13.2249 15.7681 13.5636C15.6773 13.9028 15.5881 14.2193 15.5007 14.513C15.4133 14.8067 15.3442 15.03 15.2935 15.1829L12.8129 22.4977L9.38516 22.2393L6.82587 7.7286L9.79596 7.95244L11.0313 15.8606C11.0656 16.0982 11.103 16.3818 11.1435 16.7113C11.1904 17.0413 11.2329 17.3872 11.2709 17.7492C11.3159 18.1051 11.3519 18.4506 11.3789 18.7856C11.4128 19.1146 11.4337 19.4002 11.4416 19.6424C11.4927 19.3981 11.5564 19.1157 11.6328 18.795C11.7097 18.4678 11.7901 18.1376 11.8739 17.8044C11.9648 17.4653 12.0537 17.152 12.1406 16.8648C12.2276 16.5775 12.3038 16.345 12.3695 16.1671L15.0447 8.34802L17.898 8.56306L19.3711 16.6948C19.4033 16.8735 19.4374 17.1144 19.4733 17.4174C19.5162 17.7145 19.5572 18.0375 19.5962 18.3864C19.6352 18.7354 19.6681 19.0774 19.6951 19.4124C19.7291 19.7414 19.75 20.027 19.7579 20.2691C19.8278 19.948 19.9191 19.5598 20.0317 19.1048C20.1513 18.6437 20.2739 18.1861 20.3996 17.7321C20.5317 17.2785 20.6452 16.8986 20.7401 16.5923L23.137 8.9579L26.1071 9.18175Z" fill="black" fill-opacity="0.8"/>
<path d="M187.558 23.6711L184.545 23.8495L184.181 17.6982L178.536 18.0326L178.901 24.1839L175.879 24.363L175.034 10.1106L178.057 9.93158L178.387 15.5175L184.032 15.1831L183.701 9.59718L186.713 9.41871L187.558 23.6711Z" fill="black" fill-opacity="0.8"/>
</svg>
